<svg width="24" height="24" viewBox="0 0 24 24" fill="none" xmlns="http://www.w3.org/2000/svg">
<path fill-rule="evenodd" clip-rule="evenodd" d="M14.6956 9.5C14.6956 12.5764 12.2629 15 9.34782 15C6.43275 15 4 12.5764 4 9.5C4 6.42359 6.43275 4 9.34782 4C12.2629 4 14.6956 6.42359 14.6956 9.5ZM14.0307 15.2798C12.7592 16.3543 11.1274 17 9.34782 17C5.28973 17 2 13.6421 2 9.5C2 5.35786 5.28973 2 9.34782 2C13.4059 2 16.6956 5.35786 16.6956 9.5C16.6956 11.0968 16.2068 12.577 15.3735 13.7932L22.0141 20.5714L20.6145 22L14.0307 15.2798Z" fill="black"/>
</svg>
