<svg width="20" height="20" viewBox="0 0 20 20" fill="none" xmlns="http://www.w3.org/2000/svg">
<rect width="20" height="20" fill="white"/>
<path d="M9.07222 2.80556C10.2756 2.80446 11.4523 3.16031 12.4535 3.82809C13.4546 4.49586 14.2352 5.44556 14.6964 6.55705C15.1577 7.66854 15.279 8.89187 15.0449 10.0723C14.8108 11.2527 14.2319 12.3372 13.3813 13.1885C12.5308 14.0398 11.4468 14.6197 10.2666 14.8549C9.08642 15.0901 7.86298 14.97 6.75107 14.5097C5.63917 14.0494 4.68875 13.2697 4.02006 12.2692C3.35137 11.2687 2.99445 10.0923 2.99445 8.88889C3.00174 7.2787 3.64424 5.73646 4.78231 4.59735C5.92038 3.45824 7.46204 2.81433 9.07222 2.80556M9.07222 1.66667C7.6438 1.66667 6.24746 2.09025 5.05977 2.88384C3.87208 3.67742 2.94639 4.80538 2.39976 6.12507C1.85313 7.44476 1.7101 8.89691 1.98877 10.2979C2.26745 11.6989 2.9553 12.9857 3.96534 13.9958C4.97539 15.0058 6.26226 15.6937 7.66324 15.9723C9.06421 16.251 10.5164 16.108 11.836 15.5614C13.1557 15.0147 14.2837 14.089 15.0773 12.9013C15.8709 11.7137 16.2944 10.3173 16.2944 8.88889C16.2944 6.97344 15.5335 5.13644 14.1791 3.78201C12.8247 2.42758 10.9877 1.66667 9.07222 1.66667Z" fill="black"/>
<path d="M19.4444 18.4944L15.35 14.3722L14.5611 15.1556L18.6556 19.2778C18.707 19.3296 18.7681 19.3707 18.8355 19.3989C18.9028 19.4271 18.975 19.4417 19.048 19.442C19.121 19.4422 19.1934 19.4281 19.2609 19.4004C19.3284 19.3727 19.3899 19.332 19.4417 19.2806C19.4935 19.2291 19.5346 19.168 19.5628 19.1006C19.591 19.0333 19.6056 18.9611 19.6059 18.8881C19.6061 18.8151 19.592 18.7427 19.5643 18.6752C19.5366 18.6077 19.4959 18.5462 19.4444 18.4944Z" fill="black"/>
</svg>
