<svg width="20" height="20" viewBox="0 0 20 20" fill="none" xmlns="http://www.w3.org/2000/svg">
<rect width="20" height="20" fill="white"/>
<path d="M7.40556 17.7778C8.09591 17.7778 8.65556 17.2181 8.65556 16.5278C8.65556 15.8374 8.09591 15.2778 7.40556 15.2778C6.7152 15.2778 6.15556 15.8374 6.15556 16.5278C6.15556 17.2181 6.7152 17.7778 7.40556 17.7778Z" fill="black"/>
<path d="M15 17.7778C15.6904 17.7778 16.25 17.2181 16.25 16.5278C16.25 15.8374 15.6904 15.2778 15 15.2778C14.3096 15.2778 13.75 15.8374 13.75 16.5278C13.75 17.2181 14.3096 17.7778 15 17.7778Z" fill="black"/>
<path d="M18.3778 2.98333C18.3261 2.9196 18.2609 2.86811 18.1869 2.83257C18.113 2.79703 18.0321 2.77832 17.95 2.77777H6.38333L6.74444 3.88888H17.2222L15.7389 10.5556H7.40556L4.86667 2.51666C4.83921 2.43136 4.79152 2.35397 4.72767 2.29109C4.66382 2.22821 4.58571 2.18171 4.5 2.15555L2.22222 1.45555C2.15218 1.43403 2.07859 1.42651 2.00565 1.43343C1.93271 1.44035 1.86184 1.46157 1.7971 1.49587C1.66634 1.56516 1.56847 1.68355 1.525 1.825C1.48153 1.96644 1.49604 2.11937 1.56532 2.25012C1.63461 2.38088 1.753 2.47875 1.89444 2.52222L3.88889 3.13333L6.43889 11.1889L5.52778 11.9333L5.45556 12.0056C5.23019 12.2653 5.10245 12.5954 5.09433 12.9392C5.08622 13.283 5.19824 13.6188 5.41111 13.8889C5.56253 14.073 5.75495 14.2192 5.97297 14.3156C6.19098 14.4121 6.42855 14.4562 6.66667 14.4444H15.9389C16.0862 14.4444 16.2275 14.3859 16.3317 14.2817C16.4359 14.1775 16.4944 14.0362 16.4944 13.8889C16.4944 13.7415 16.4359 13.6002 16.3317 13.496C16.2275 13.3919 16.0862 13.3333 15.9389 13.3333H6.57778C6.5138 13.3311 6.45147 13.3125 6.39681 13.2792C6.34215 13.2459 6.297 13.199 6.26572 13.1432C6.23444 13.0873 6.2181 13.0244 6.21826 12.9604C6.21843 12.8963 6.2351 12.8335 6.26667 12.7778L7.60556 11.6667H16.1833C16.3118 11.6698 16.4373 11.6283 16.5386 11.5493C16.6399 11.4703 16.7107 11.3587 16.7389 11.2333L18.5 3.45555C18.5169 3.37273 18.5147 3.28714 18.4935 3.20531C18.4723 3.12348 18.4327 3.04756 18.3778 2.98333V2.98333Z" fill="black"/>
</svg>
