<svg width="20" height="20" viewBox="0 0 20 20" fill="none" xmlns="http://www.w3.org/2000/svg">
<rect width="20" height="20" fill="white"/>
<path d="M10 9.44445C10.7691 9.44445 11.521 9.21637 12.1606 8.78905C12.8001 8.36174 13.2985 7.75438 13.5929 7.04378C13.8872 6.33317 13.9642 5.55125 13.8142 4.79688C13.6641 4.04251 13.2937 3.34957 12.7499 2.8057C12.206 2.26183 11.5131 1.89145 10.7587 1.7414C10.0043 1.59134 9.22239 1.66836 8.51179 1.9627C7.80118 2.25704 7.19382 2.75549 6.76651 3.39501C6.33919 4.03454 6.11111 4.78641 6.11111 5.55556C6.11111 6.58696 6.52083 7.57611 7.25014 8.30542C7.97945 9.03473 8.9686 9.44445 10 9.44445ZM10 2.77778C10.5494 2.77778 11.0864 2.9407 11.5433 3.24592C12.0001 3.55115 12.3561 3.98498 12.5663 4.49255C12.7766 5.00013 12.8316 5.55864 12.7244 6.09748C12.6172 6.63632 12.3527 7.13127 11.9642 7.51975C11.5757 7.90823 11.0808 8.17278 10.5419 8.27997C10.0031 8.38715 9.44456 8.33214 8.93699 8.12189C8.42942 7.91165 7.99559 7.55562 7.69036 7.09881C7.38514 6.64201 7.22222 6.10495 7.22222 5.55556C7.22222 4.81885 7.51488 4.11231 8.03581 3.59138C8.55675 3.07044 9.26329 2.77778 10 2.77778V2.77778Z" fill="black"/>
<path d="M16.9278 13.5389C16.0368 12.5972 14.9632 11.8472 13.7725 11.3346C12.5818 10.822 11.2991 10.5576 10.0028 10.5576C8.70644 10.5576 7.42372 10.822 6.23303 11.3346C5.04235 11.8472 3.96872 12.5972 3.07778 13.5389C2.88462 13.7452 2.77734 14.0174 2.77778 14.3V17.2222C2.77778 17.5169 2.89484 17.7995 3.10321 18.0079C3.31159 18.2163 3.5942 18.3333 3.88889 18.3333H16.1111C16.4058 18.3333 16.6884 18.2163 16.8968 18.0079C17.1052 17.7995 17.2222 17.5169 17.2222 17.2222V14.3C17.2242 14.0181 17.1189 13.7461 16.9278 13.5389V13.5389ZM16.1111 17.2222H3.88889V14.2945C4.67624 13.4654 5.62405 12.8052 6.67464 12.3541C7.72524 11.9029 8.85664 11.6703 10 11.6703C11.1434 11.6703 12.2748 11.9029 13.3254 12.3541C14.376 12.8052 15.3238 13.4654 16.1111 14.2945V17.2222Z" fill="black"/>
</svg>
